<?xml version="1.0" encoding="UTF-8" standalone="no"?>
<svg
   viewBox="0 0 16 16"
   version="1.1"
   id="svg4"
   sodipodi:docname="calendar-arrow-right.svg"
   inkscape:version="1.1.2 (0a00cf5339, 2022-02-04)"
   xmlns:inkscape="http://www.inkscape.org/namespaces/inkscape"
   xmlns:sodipodi="http://sodipodi.sourceforge.net/DTD/sodipodi-0.dtd"
   xmlns="http://www.w3.org/2000/svg"
   xmlns:svg="http://www.w3.org/2000/svg">
  <defs
     id="defs8" />
  <sodipodi:namedview
     id="namedview6"
     pagecolor="#505050"
     bordercolor="#ffffff"
     borderopacity="1"
     inkscape:pageshadow="0"
     inkscape:pageopacity="0"
     inkscape:pagecheckerboard="1"
     showgrid="false"
     inkscape:zoom="17.375"
     inkscape:cx="5.0071942"
     inkscape:cy="7.942446"
     inkscape:window-width="1366"
     inkscape:window-height="734"
     inkscape:window-x="0"
     inkscape:window-y="0"
     inkscape:window-maximized="1"
     inkscape:current-layer="svg4" />
  <path
     d="m 5.531,2.842 c 0.6900002,0.5597288 1.3970002,1.1252213 2.0080002,1.7009606 0.679,0.6404219 1.287,1.262912 1.825,1.8649085 0.497,0.5558863 0.6379068,1.1361086 0.9349068,1.5575062 -0.297,0.4213976 -0.4379068,1.0016195 -0.9349068,1.5575064 -0.5711912,0.6362303 -1.1799646,1.2583163 -1.825,1.8649083 -0.61,0.576379 -1.317,1.141232 -2.0080002,1.70096 l 0.217511,-0.785624 c 0.4000001,-0.33558 0.6194892,-0.848732 1.0044892,-1.20929 0.484984,-0.453727 0.793984,-1.3064638 1.2219823,-1.783125 0,0 0.1777992,-0.8111243 0.5939994,-1.3943658 C 8.0513299,7.1539556 7.9829901,7.1884512 7.6929052,6.3750037 7.2646379,5.8982371 7.237722,5.2909701 6.7530002,4.8369142 6.3680002,4.4769972 6.2215978,3.9776431 5.821598,3.6414216 Z"
     fill="gray"
     id="path2"
     style="fill:#ffffff;fill-opacity:1;stroke-width:0.800264"
     sodipodi:nodetypes="ccccccccccccccc" />
</svg>
