<?xml version="1.0" encoding="UTF-8" standalone="no"?>
<svg
   viewBox="0 0 16 16"
   version="1.1"
   id="svg4"
   sodipodi:docname="calendar-arrow-left.svg"
   inkscape:version="1.1.2 (0a00cf5339, 2022-02-04)"
   xmlns:inkscape="http://www.inkscape.org/namespaces/inkscape"
   xmlns:sodipodi="http://sodipodi.sourceforge.net/DTD/sodipodi-0.dtd"
   xmlns="http://www.w3.org/2000/svg"
   xmlns:svg="http://www.w3.org/2000/svg">
  <defs
     id="defs8" />
  <sodipodi:namedview
     id="namedview6"
     pagecolor="#505050"
     bordercolor="#ffffff"
     borderopacity="1"
     inkscape:pageshadow="0"
     inkscape:pageopacity="0"
     inkscape:pagecheckerboard="1"
     showgrid="false"
     inkscape:zoom="17.375"
     inkscape:cx="5.0071942"
     inkscape:cy="7.942446"
     inkscape:window-width="1366"
     inkscape:window-height="734"
     inkscape:window-x="0"
     inkscape:window-y="0"
     inkscape:window-maximized="1"
     inkscape:current-layer="svg4" />
  <path
     d="M 10.298907,2.842 C 9.6089064,3.4017288 8.9019064,3.9672213 8.2909064,4.5429606 c -0.679,0.6404219 -1.287,1.262912 -1.825,1.8649085 C 5.9689064,6.9637554 5.828,7.5439777 5.531,7.9653753 c 0.297,0.4213976 0.4379064,1.0016195 0.9349064,1.5575064 0.5711912,0.6362303 1.1799646,1.2583163 1.825,1.8649083 0.61,0.576379 1.317,1.141232 2.0080006,1.70096 L 10.081396,12.303126 C 9.6813955,11.967546 9.4619064,11.454394 9.0769064,11.093836 8.5919224,10.640109 8.2829224,9.7873722 7.8549241,9.310711 c 0,0 -0.1777992,-0.8111243 -0.5939994,-1.3943658 0.517652,-0.7623896 0.5859918,-0.727894 0.8760767,-1.5413415 0.4282673,-0.4767666 0.4551832,-1.0840336 0.939905,-1.5380895 0.385,-0.359917 0.5314024,-0.8592711 0.9314026,-1.1954926 z"
     fill="gray"
     id="path2"
     style="fill:#ffffff;fill-opacity:1;stroke-width:0.800264"
     sodipodi:nodetypes="ccccccccccccccc" />
</svg>
